# AST/ASF file generated using VICON BodyLanguage
# -----------------------------------------------
:version 1.10
:name VICON
:units
  mass 1.0
  length 0.45
  angle deg
:documentation
   .ast/.asf automatically generated from VICON data using
   VICON BodyBuilder and BodyLanguage model FoxedUp or BRILLIANT.MOD
:root
   order TX TY TZ RX RY RZ
   axis XYZ
   position 0 0 0  
   orientation 0 0 0 
:bonedata
  begin
     id 1 
     name lhipjoint
     direction 0.78388 -0.462562 0.414208 
     length 3.01181 
     axis 0 0 0  XYZ
  end
  begin
     id 2 
     name lfemur
     direction 0.34202 -0.939693 0  
     length 6.04673  
     axis 0 0 20  XYZ
    dof rx ry rz
    limits (-160.0 20.0)
           (-70.0 70.0)
           (-60.0 70.0)
  end
  begin
     id 3 
     name ltibia
     direction 0.34202 -0.939693 0   
     length 7.211   
     axis 0 0 20   XYZ
    dof rx
    limits (-10.0 170.0)
  end
  begin
     id 4 
     name lfoot
     direction 0.121887 -0.334882 0.934344   
     length 2.13567   
     axis -90 7.62852e-016 20   XYZ
    dof rx rz
    limits (-45.0 90.0)
           (-70.0 20.0)
  end
  begin
     id 5 
     name ltoes
     direction 1.53555e-011 -4.2179e-011 1   
     length 1.05957   
     axis -90 7.62852e-016 20   XYZ
    dof rx
    limits (-90.0 20.0)
  end
  begin
     id 6 
     name rhipjoint
     direction -0.769387 -0.475875 0.426129   
     length 2.92756  
     axis 0 0 0  XYZ 
  end
  begin
     id 7 
     name rfemur
     direction -0.34202 -0.939693 0   
     length 6.35468   
     axis 0 0 -20   XYZ
    dof rx ry rz
    limits (-160.0 20.0)
           (-70.0 70.0)
           (-70.0 60.0)
  end
  begin
     id 8 
     name rtibia
     direction -0.34202 -0.939693 0   
     length 7.37886   
     axis 0 0 -20   XYZ
    dof rx
    limits (-10.0 170.0)
 end
 begin
     id 9 
     name rfoot
     direction -0.101763 -0.279592 0.954711   
     length 2.21478  
     axis -90 -7.62852e-016 -20   XYZ
    dof rx rz
    limits (-45.0 90.0)
           (-20.0 70.0)
  end
  begin
     id 10 
     name rtoes
     direction -1.53494e-011 -4.21851e-011 1   
     length 1.10506   
     axis -90 -7.62852e-016 -20   XYZ
    dof rx
    limits (-90.0 20.0)
  end
  begin
     id 11 
     name lowerback
     direction 0.00747405 0.999267 0.0375481   
     length 2.13259   
     axis 0 0 0   XYZ
    dof rx ry rz
    limits (-20.0 45.0)
           (-30.0 30.0)
           (-30.0 30.0)
  end
  begin
     id 12 
     name upperback
     direction 0.00661626 0.996177 0.0871029   
     length 2.10528   
     axis 0 0 0   XYZ
    dof rx ry rz
    limits (-20.0 45.0)
           (-30.0 30.0)
           (-30.0 30.0)
  end
  begin
     id 13 
     name thorax
     direction 0.00320659 0.997679 0.0680167   
     length 2.11338   
     axis 0 0 0   XYZ
    dof rx ry rz
    limits (-20.0 45.0)
           (-30.0 30.0)
           (-30.0 30.0)
  end
  begin
     id 14 
     name lowerneck
     direction 0.0374841 0.973033 0.227602   
     length 1.42765   
     axis 0 0 0   XYZ
    dof rx ry rz
    limits (-20.0 45.0)
           (-30.0 30.0)
           (-30.0 30.0)
  end
  begin
     id 15 
     name upperneck
     direction 0.00481585 0.989155 -0.146795   
     length 1.47593   
     axis 0 0 0   XYZ
    dof rx ry rz
    limits (-20.0 45.0)
           (-30.0 30.0)
           (-30.0 30.0)
  end
  begin
     id 16
     name head
     direction -0.00292522 0.997206 -0.0746423  
     length 1.48116  
     axis 0 0 0   XYZ
    dof rx ry rz
    limits (-20.0 45.0)
           (-30.0 30.0)
           (-30.0 30.0)
  end
  begin
     id 17 
     name lclavicle
     direction 0.951444 0.305606 0.0368784  
     length 3.01855  
     axis 0 0 0   XYZ
    dof ry rz
    limits (-20.0 10.0)
           (0.0 20.0)
  end
  begin
     id 18 
     name lhumerus
     direction 1 -4.48977e-011 2.61664e-027   
     length 5.52731   
     axis 180 -30 -90   XYZ
    dof rx ry rz
    limits (-60.0 90.0)
           (-90.0 90.0)
           (-90.0 90.0)
  end
  begin
     id 19
     name lradius
     direction 1 -4.48944e-011 8.22157e-027   
     length 3.11059   
     axis 180 -30 -90   XYZ
    dof rx
    limits (-10.0 170.0)
  end
  begin
     id 20
     name lwrist
     direction 1 -4.48976e-011 1.5779e-026   
     length 1.5553   
     axis -1.15221e-014 90 90   XYZ
    dof ry
    limits (-180.0 0.0)
 end
  begin
     id 21 
     name lhand
     direction 1 -4.49025e-011 3.1558e-026   
     length 0.419626   
     axis -2.01367e-014 90 90   XYZ
    dof rx rz
    limits (-90.0 90.0)
           (-45.0 45.0)
  end
  begin
     id 22 
     name lfingers
     direction 1 -4.4904e-011 6.31161e-026   
     length 0.338313   
     axis -4.02734e-014 90 90   XYZ
    dof rx
    limits (0.0 90.0)
  end
  begin
     id 23
     name lthumb
     direction 0.707107 -6.35004e-011 0.707107   
     length 0.485752   
     axis -90 45 2.85299e-015   XYZ
    dof rx rz
    limits (-45.0 45.0)
           (-45.0 45.0)
  end
  begin
     id 24 
     name rclavicle
     direction -0.968876 0.223791 0.105816   
     length 3.04177  
     axis 0 0 0   XYZ 
    dof ry rz
    limits (-10.0 20.0)
           (-20.0 0.0)
  end
  begin
     id 25 
     name rhumerus
     direction -1 -4.48962e-011 -1.01384e-027  
     length 5.25396   
     axis 180 30 90   XYZ
    dof rx ry rz
    limits (-90.0 60.0)
           (-90.0 90.0)
           (-90.0 90.0)
  end
  begin
     id 26 
     name rradius
     direction -1 -4.48955e-011 8.88542e-027   
     length 3.10567   
     axis 180 30 90   XYZ
    dof rx
    limits (-10.0 170.0)
  end
  begin
     id 27 
     name rwrist
     direction -1 -4.48994e-011 1.5779e-026   
     length 1.55283   
     axis -1.15221e-014 -90 -90   XYZ
    dof ry
    limits (-180.0 0.0)
  end
  begin
     id 28
     name rhand
     direction -1 -4.48891e-011 3.1558e-026   
     length 0.498676   
     axis -2.01367e-014 -90 -90   XYZ
    dof rx rz
    limits (-90.0 90.0)
           (-45.0 45.0)
  end
  begin
     id 29
     name rfingers
     direction -1 -4.48972e-011 6.31161e-026   
     length 0.402045   
     axis -4.02734e-014 -90 -90   XYZ
    dof rx
    limits (0.0 90.0)
  end
  begin
     id 30
     name rthumb
     direction -0.707107 -6.34849e-011 0.707107   
     length 0.577259   
     axis -90 -45 -2.85299e-015   XYZ
    dof rx rz
    limits (-45.0 45.0)
           (-45.0 45.0)
  end
:hierarchy
  begin
    root lhipjoint rhipjoint lowerback
    lhipjoint lfemur
    lfemur ltibia
    ltibia lfoot
    lfoot ltoes
    rhipjoint rfemur
    rfemur rtibia
    rtibia rfoot
    rfoot rtoes
    lowerback upperback
    upperback thorax
    thorax lowerneck lclavicle rclavicle
    lowerneck upperneck
    upperneck head
    lclavicle lhumerus
    lhumerus lradius
    lradius lwrist
    lwrist lhand lthumb
    lhand lfingers
    rclavicle rhumerus
    rhumerus rradius
    rradius rwrist
    rwrist rhand rthumb
    rhand rfingers
  end

#!OML:ASF H:\Pregnant\Project 1\Capture day 1\Session 1\femalepreg.ASF
:FULLY-SPECIFIED
:DEGREES
120
root 2.74909 15.7181 31.8739 184.89 -85.9536 -168.389
lowerback -24.712 -1.58493 0.0458292
upperback -6.99148 -2.89792 2.75884
thorax 6.15366 -1.66147 2.1049
lowerneck -13.3703 -8.91239 -5.57135
upperneck 21.1613 -14.7553 11.6125
head 10.2841 -6.32715 2.93318
rclavicle 1.21259e-014 8.74653e-015
rhumerus -36.8059 -14.3151 -69.6673
rradius 23.5664
rwrist -25.58
rhand -15.1958 -32.9247
rfingers 7.12502
rthumb 10.9759 -62.6178
lclavicle 1.21259e-014 8.74653e-015
lhumerus -39.0861 7.15239 80.7897
lradius 29.3989
lwrist 61.8292
lhand -28.524 16.6773
lfingers 7.12502
lthumb -1.892 46.6487
rfemur -25.6665 18.7656 21.7921
rtibia 26.5457
rfoot -14.0664 -12.9924
rtoes 6.12898
lfemur 0 0 0
ltibia 0
lfoot 0 0
ltoes 0
121
root 2.75092 15.7188 31.8711 185.068 -85.9651 -168.546
lowerback -24.7187 -1.63294 -0.0645035
upperback -6.97077 -2.93716 2.81768
thorax 6.18945 -1.68042 2.22027
lowerneck -13.3527 -8.93237 -5.54945
upperneck 21.0067 -14.7523 11.5956
head 10.2215 -6.32978 2.92536
rclavicle -1.78906e-014 2.54444e-014
rhumerus -36.7578 -14.5939 -69.6931
rradius 23.4856
rwrist -25.3477
rhand -16.4857 -33.4932
rfingers 7.12502
rthumb 9.73157 -63.2484
lclavicle -1.78906e-014 2.54444e-014
lhumerus -39.1711 6.64824 81.2424
lradius 29.5432
lwrist 61.7332
lhand -28.4077 16.7711
lfingers 7.12502
lthumb -1.77972 46.7434
rfemur -25.6962 18.7484 21.781
rtibia 26.5442
rfoot -14.0732 -12.9753
rtoes 6.18418
lfemur 0 0 0
ltibia 0
lfoot 0 0
ltoes 0
122
root 2.75282 15.7195 31.8682 185.17 -85.9796 -168.627
lowerback -24.7183 -1.687 -0.182555
upperback -6.95659 -2.98375 2.88909
thorax 6.21605 -1.70326 2.35195
lowerneck -13.3332 -8.94595 -5.53589
upperneck 20.871 -14.7395 11.5701
head 10.1643 -6.32894 2.91758
rclavicle 1.07344e-014 8.74653e-015
rhumerus -36.7225 -14.8799 -69.7027
rradius 23.4304
rwrist -25.1363
rhand -17.6804 -34.0618
rfingers 7.12502
rthumb 8.57879 -63.8675
lclavicle 1.07344e-014 8.74653e-015
lhumerus -39.2827 6.12392 81.7199
lradius 29.7131
lwrist 61.6219
lhand -28.218 16.8332
lfingers 7.12502
lthumb -1.59643 46.807
rfemur -25.7224 18.7288 21.7772
rtibia 26.5363
rfoot -14.0717 -12.961
rtoes 6.21118
lfemur 0 0 0
ltibia 0
lfoot 0 0
ltoes 0
123
root 2.75477 15.7202 31.8652 185.201 -85.9977 -168.637
lowerback -24.7115 -1.73525 -0.298188
upperback -6.94988 -3.02292 2.95231
thorax 6.23057 -1.7227 2.47582
lowerneck -13.3071 -8.95795 -5.49962
upperneck 20.7526 -14.7322 11.5371
head 10.1103 -6.32986 2.90305
rclavicle -8.44835e-015 1.11319e-014
rhumerus -36.7194 -15.1672 -69.725
rradius 23.4066
rwrist -24.9906
rhand -18.7559 -34.6177
rfingers 7.12502
rthumb 7.54074 -64.4633
lclavicle -8.44835e-015 1.11319e-014
lhumerus -39.4193 5.51901 82.2196
lradius 29.914
lwrist 61.5448
lhand -28.0046 16.8513
lfingers 7.12502
lthumb -1.39034 46.8265
rfemur -25.7452 18.7098 21.7799
rtibia 26.5227
rfoot -14.0626 -12.9536
rtoes 6.21118
lfemur 0 0 0
ltibia 0
lfoot 0 0
ltoes 0
124
root 2.75689 15.7209 31.862 185.165 -86.0196 -168.581
lowerback -24.6964 -1.7818 -0.412427
upperback -6.9485 -3.06007 3.01262
thorax 6.23495 -1.74125 2.59665
lowerneck -13.2799 -8.96721 -5.45183
upperneck 20.6509 -14.7258 11.4985
head 10.061 -6.33072 2.88469
rclavicle 3.45885e-014 1.11319e-014
rhumerus -36.7404 -15.4586 -69.7493
rradius 23.4129
rwrist -24.8882
rhand -19.6928 -35.1331
rfingers 7.12502
rthumb 6.63638 -65.0091
lclavicle 3.45885e-014 1.11319e-014
lhumerus -39.5762 4.8552 82.7415
lradius 30.1407
lwrist 61.5087
lhand -27.7771 16.8273
lfingers 7.12502
lthumb -1.17066 46.8038
rfemur -25.765 18.6926 21.7877
rtibia 26.5059
rfoot -14.0508 -12.9497
rtoes 6.21806
lfemur 0 0 0
ltibia 0
lfoot 0 0
ltoes 0
